<svg width="68" height="56" viewBox="0 0 68 56" fill="none" xmlns="http://www.w3.org/2000/svg">
<rect width="68" height="56" rx="28" fill="#333333"/>
<rect x="0.5" y="0.5" width="67" height="55" rx="27.5" stroke="black" stroke-opacity="0.4"/>
<path d="M34 20C36.7486 20 39.1749 21.3863 40.6156 23.5H38V25.5H44V19.5H42V21.9994C40.1762 19.5717 37.2724 18 34 18C28.4771 18 24 22.4771 24 28H26C26 23.5817 29.5817 20 34 20ZM42 28C42 32.4183 38.4183 36 34 36C31.2514 36 28.8251 34.6137 27.3844 32.5H30V30.5H24V36.5H26V34.0006C27.8238 36.4283 30.7276 38 34 38C39.5228 38 44 33.5228 44 28H42Z" fill="white"/>
</svg>
