<svg width="68" height="56" viewBox="0 0 68 56" fill="none" xmlns="http://www.w3.org/2000/svg">
<rect width="68" height="56" rx="28" fill="#333333"/>
<rect x="0.5" y="0.5" width="67" height="55" rx="27.5" stroke="black" stroke-opacity="0.4"/>
<path d="M38.5 19C41.5376 19 44 21.5 44 25C44 32 36.5 36 34 37.5C31.5 36 24 32 24 25C24 21.5 26.5 19 29.5 19C31.36 19 33 20 34 21C35 20 36.64 19 38.5 19ZM34.9339 34.6038C35.8155 34.0485 36.61 33.4955 37.3549 32.9029C40.3337 30.533 42 27.9435 42 25C42 22.6408 40.463 21 38.5 21C37.4241 21 36.2593 21.5691 35.4142 22.4142L34 23.8284L32.5858 22.4142C31.7407 21.5691 30.5759 21 29.5 21C27.5591 21 26 22.6565 26 25C26 27.9435 27.6663 30.533 30.6451 32.9029C31.39 33.4955 32.1845 34.0485 33.0661 34.6038C33.3646 34.7919 33.6611 34.9729 34 35.1752C34.3389 34.9729 34.6354 34.7919 34.9339 34.6038Z" fill="white"/>
</svg>
