<svg width="144" height="32" viewBox="0 0 144 32" fill="none" xmlns="http://www.w3.org/2000/svg" xmlns:xlink="http://www.w3.org/1999/xlink">
<path fill-rule="evenodd" clip-rule="evenodd" d="M71.2033 8.57143C73.1081 8.57143 74.6033 9.17143 75.6891 10.3714C76.7938 11.5524 77.3462 13.219 77.3462 15.3714V23.7143H74.9176L74.2319 21.3714C73.8129 22.0762 73.1938 22.6952 72.3748 23.2286C71.5557 23.7429 70.5843 24 69.4605 24C68.47 24 67.5748 23.8 66.7748 23.4C65.9938 23 65.3843 22.4381 64.9462 21.7143C64.5081 20.9905 64.2891 20.1714 64.2891 19.2571C64.2891 17.8476 64.8414 16.7238 65.9462 15.8857C67.07 15.0286 68.6986 14.6 70.8319 14.6H74.0319C73.9557 13.6095 73.651 12.8286 73.1176 12.2571C72.6033 11.6667 71.9081 11.3714 71.0319 11.3714C70.3272 11.3714 69.7176 11.5429 69.2033 11.8857C68.6891 12.2286 68.3081 12.6476 68.0605 13.1429L65.0319 12.6286C65.3938 11.3714 66.1367 10.381 67.2605 9.65714C68.4033 8.93333 69.7176 8.57143 71.2033 8.57143ZM70.2319 21.2286C71.3748 21.2286 72.2986 20.8571 73.0033 20.1143C73.7081 19.3714 74.0605 18.3905 74.0605 17.1714H70.9462C68.7176 17.1714 67.6033 17.819 67.6033 19.1143C67.6033 19.7619 67.8414 20.2762 68.3176 20.6571C68.7938 21.0381 69.4319 21.2286 70.2319 21.2286ZM80.9107 8.85714V29.5714H84.1964V21.4571C84.7869 22.181 85.5488 22.7905 86.4821 23.2857C87.4155 23.7619 88.4821 24 89.6821 24C91.0726 24 92.3202 23.6762 93.425 23.0286C94.5298 22.3619 95.3869 21.4476 95.9964 20.2857C96.625 19.1048 96.9393 17.7714 96.9393 16.2857C96.9393 14.8 96.625 13.4762 95.9964 12.3143C95.3869 11.1333 94.5298 10.219 93.425 9.57143C92.3202 8.90476 91.0726 8.57143 89.6821 8.57143C88.444 8.57143 87.3488 8.83809 86.3964 9.37143C85.444 9.88571 84.6631 10.5143 84.0536 11.2571L83.3679 8.85714H80.9107ZM92.225 19.7429C91.3679 20.619 90.2536 21.0571 88.8821 21.0571C87.4917 21.0571 86.3583 20.619 85.4821 19.7429C84.625 18.8476 84.1964 17.6952 84.1964 16.2857C84.1964 14.8762 84.625 13.7333 85.4821 12.8571C86.3583 11.9619 87.4917 11.5143 88.8821 11.5143C90.2536 11.5143 91.3679 11.9619 92.225 12.8571C93.0821 13.7333 93.5107 14.8762 93.5107 16.2857C93.5107 17.6952 93.0821 18.8476 92.225 19.7429ZM117.92 23.0286C119.101 23.6762 120.435 24 121.92 24C123.539 24 125.006 23.5905 126.32 22.7714C127.635 21.9524 128.558 20.7905 129.092 19.2857L126.006 18.7714C125.663 19.4381 125.149 19.981 124.463 20.4C123.777 20.8 122.996 21 122.12 21C120.787 21 119.701 20.5619 118.863 19.6857C118.025 18.8095 117.606 17.6762 117.606 16.2857C117.606 14.8952 118.025 13.7619 118.863 12.8857C119.701 12.0095 120.787 11.5714 122.12 11.5714C122.958 11.5714 123.711 11.7714 124.377 12.1714C125.063 12.5714 125.568 13.0952 125.892 13.7429L128.977 13.2286C128.444 11.7429 127.539 10.6 126.263 9.8C125.006 8.98095 123.558 8.57143 121.92 8.57143C120.435 8.57143 119.101 8.90476 117.92 9.57143C116.739 10.219 115.816 11.1333 115.149 12.3143C114.501 13.4762 114.177 14.8 114.177 16.2857C114.177 17.7714 114.501 19.1048 115.149 20.2857C115.816 21.4476 116.739 22.3619 117.92 23.0286ZM143.328 23.7143V8.85714H136.728C135.623 8.85714 134.633 9.07619 133.756 9.51429C132.88 9.93333 132.195 10.5238 131.699 11.2857C131.204 12.0476 130.956 12.9143 130.956 13.8857C130.956 14.9333 131.233 15.8571 131.785 16.6571C132.337 17.4571 133.099 18.0476 134.071 18.4286L130.528 23.7143H134.271L137.414 18.9429H140.042V23.7143H143.328ZM140.042 11.7143V16.0857H136.728C135.985 16.0857 135.385 15.8857 134.928 15.4857C134.471 15.0857 134.242 14.5524 134.242 13.8857C134.242 13.2381 134.471 12.7143 134.928 12.3143C135.385 11.9143 135.985 11.7143 136.728 11.7143H140.042ZM109.814 8.85714H113.156L107.071 25.5714C106.556 26.981 105.89 28 105.071 28.6286C104.271 29.2571 103.195 29.5714 101.842 29.5714H99.585L99.2993 26.5714H102.071C102.623 26.5714 103.042 26.4476 103.328 26.2C103.633 25.9714 103.89 25.5619 104.099 24.9714L104.271 24.5143L97.6708 8.85714H101.185L105.556 19.5714H106.014L109.814 8.85714ZM43.8571 23.7143H47V12.6857H47.4571L51.1714 23.7143H53.9429L57.8286 12.6857H58.2857V23.7143H61.4286V8.85714H56.4286L52.8571 19.0571H52.4L48.9714 8.85714H43.8571V23.7143Z" fill="white"/>
<mask id="mask0_1_904" style="mask-type:alpha" maskUnits="userSpaceOnUse" x="0" y="0" width="32" height="32">
<path d="M0 15.36C0 8.11923 0 4.49884 2.24942 2.24942C4.49884 0 8.11923 0 15.36 0H16.64C23.8808 0 27.5012 0 29.7506 2.24942C32 4.49884 32 8.11923 32 15.36V16.64C32 23.8808 32 27.5012 29.7506 29.7506C27.5012 32 23.8808 32 16.64 32H15.36C8.11923 32 4.49884 32 2.24942 29.7506C0 27.5012 0 23.8808 0 16.64V15.36Z" fill="#0077FF"/>
</mask>
<g mask="url(#mask0_1_904)">
<mask id="mask1_1_904" style="mask-type:alpha" maskUnits="userSpaceOnUse" x="7" y="0" width="25" height="32">
<path fill-rule="evenodd" clip-rule="evenodd" d="M31.2403 9.32109C30.0105 3.98367 25.2384 0 19.5462 0C13.8539 0 9.08185 3.98367 7.852 9.32109C7.41655 10.968 7.14307 13.3509 7.14307 16C7.14307 18.6491 7.41655 21.032 7.852 22.6789C9.08226 28.0163 13.8539 32 19.5462 32C25.2384 32 30.0105 28.0163 31.2403 22.6789C31.6754 21.032 31.9493 18.6491 31.9493 16C31.9493 13.3509 31.6758 10.968 31.2403 9.32109Z" fill="black"/>
</mask>
<g mask="url(#mask1_1_904)">
<rect x="2.46533" y="-4.43115" width="34.1993" height="40.8615" fill="url(#pattern0_1_904)"/>
</g>
</g>
<defs>
<pattern id="pattern0_1_904" patternContentUnits="objectBoundingBox" width="1" height="1">
<use xlink:href="#image0_1_904" transform="matrix(0.000292997 0 0 0.000245226 0 -0.00222305)"/>
</pattern>
</svg>